<?xml version="1.0" encoding="UTF-8" standalone="no"?>
<!-- Created with Inkscape (http://www.inkscape.org/) -->

<svg
   width="189.01155mm"
   height="130.30226mm"
   viewBox="0 0 189.01155 130.30226"
   version="1.1"
   id="svg5"
   xml:space="preserve"
   xmlns:inkscape="http://www.inkscape.org/namespaces/inkscape"
   xmlns:sodipodi="http://sodipodi.sourceforge.net/DTD/sodipodi-0.dtd"
   xmlns="http://www.w3.org/2000/svg"
   xmlns:svg="http://www.w3.org/2000/svg"><sodipodi:namedview
     id="namedview7"
     pagecolor="#505050"
     bordercolor="#eeeeee"
     borderopacity="1"
     inkscape:showpageshadow="0"
     inkscape:pageopacity="0"
     inkscape:pagecheckerboard="0"
     inkscape:deskcolor="#505050"
     inkscape:document-units="mm"
     showgrid="false" /><defs
     id="defs2" /><g
     inkscape:label="Layer 1"
     inkscape:groupmode="layer"
     id="layer1"
     transform="translate(-8.5535872,-179.95567)"><path
       style="fill:none;stroke:#000000;stroke-width:0.705556;stroke-linecap:round;stroke-linejoin:round"
       d="M 8.9063646,228.83904 V 187.21542 H 58.709303 v -6.90697 h 19.993879 v 6.90697 h 14.359239 v 32.5355 h 36.170749 v 1.4541 h 3.27173 v -23.99266 h 17.26744 v 0.72705 h 4.90759 l -0.33026,1.23255 h 7.23723 v -1.05079 h 4.72583 v -1.09057 h 17.81273 v 29.44553 h -2.9082 v 19.81212 h 2.72643 v 22.17503 h 13.26867 v 36.8978 h -29.44553 v 4.54406 h -19.81212 v -5.08935 H 71.614442 v 4.3623 H 51.802326 v -2.18115 h -38.53366 v -77.97613 z"
       id="path589" /><path
       style="fill:none;stroke:#000000;stroke-width:0.705556;stroke-linecap:round;stroke-linejoin:round"
       d="m 18.507676,246.97482 v 4.17708"
       id="path591" /><path
       style="fill:none;stroke:#000000;stroke-width:0.705556;stroke-linecap:round;stroke-linejoin:round"
       d="m 18.507676,256.54997 v 4.04856"
       id="path593" /><path
       style="fill:none;stroke:#000000;stroke-width:0.705556;stroke-linecap:round;stroke-linejoin:round"
       d="m 13.430918,266.31791 h 5.205283 v 10.60336 h 3.02035 v 8.41842 h -8.289896"
       id="path595" /><path
       style="fill:none;stroke:#000000;stroke-width:0.705556;stroke-linecap:round;stroke-linejoin:round"
       d="m 21.913602,306.99624 v -22.62049 h 34.573367 1.15673 v 1.34952 7.90432 h -5.912173 v 4.94823 h 4.177077 v 6.36202 h 11.245985 v -0.96395 h 4.562655 v 1.47805"
       id="path597" /><path
       style="fill:none;stroke:#000000;stroke-width:0.705556;stroke-linecap:round;stroke-linejoin:round"
       d="m 76.408427,294.97911 h -5.783649 v -1.34952 h -5.205285 v -8.93253 h 11.18172 z"
       id="path599" /><path
       style="fill:none;stroke:#000000;stroke-width:0.705556;stroke-linecap:round;stroke-linejoin:round"
       d="m 89.836137,284.77647 v 1.04513 h 1.090575 v -1.04513 z"
       id="path601" /><path
       style="fill:none;stroke:#000000;stroke-width:0.705556;stroke-linecap:round;stroke-linejoin:round"
       d="m 106.93324,297.98387 v 6.63465 h 5.20528 v -6.61907 z"
       id="path603"
       sodipodi:nodetypes="ccccc" /><path
       style="fill:none;stroke:#000000;stroke-width:0.705556;stroke-linecap:round;stroke-linejoin:round"
       d="m 97.548527,298.13586 v 6.63465 h 5.205283 v -6.61907 z"
       id="path605"
       sodipodi:nodetypes="ccccc" /><path
       style="fill:none;stroke:#000000;stroke-width:0.705556;stroke-linecap:round;stroke-linejoin:round"
       d="m 109.50375,297.87093 v -2.63477 h -2.57051 v -4.75545 h -0.64263 v -5.46233 h 29.30382 v 0.57836 h 49.48233 v -6.74759 h -4.69118 v -5.71939 h -3.14888 v 5.65513 h -15.10175 v -10.21778 h -8.0971 v 10.21778 H 99.800073 V 277.5639 H 87.011781 v 0.83541 H 28.725455 v -1.60657 h 3.148875 v -10.66762 h 1.028205 v -5.14102 h -0.771154 v -14.00928 h 1.092467 v -5.59086 h -1.41378 V 230.45929 H 18.636201 v 10.86041 h -5.398072"
       id="path607" /><path
       style="fill:none;stroke:#000000;stroke-width:0.705556;stroke-linecap:round;stroke-linejoin:round"
       d="m 109.50375,295.30042 h 2.44198 v -4.75544 h -4.94823"
       id="path609" /><path
       style="fill:none;stroke:#000000;stroke-width:0.705556;stroke-linecap:round;stroke-linejoin:round"
       d="m 111.81721,290.54498 h 17.28668 v 14.00928"
       id="path611" /><path
       style="fill:none;stroke:#000000;stroke-width:0.705556;stroke-linecap:round;stroke-linejoin:round"
       d="M 128.9111,290.35219 V 285.1469"
       id="path613" /><path
       style="fill:none;stroke:#000000;stroke-width:0.705556;stroke-linecap:round;stroke-linejoin:round"
       d="m 124.6055,285.08264 v 5.5266"
       id="path615" /><path
       style="fill:none;stroke:#000000;stroke-width:0.705556;stroke-linecap:round;stroke-linejoin:round"
       d="m 120.04284,290.54498 v -5.5266"
       id="path617" /><path
       style="fill:none;stroke:#000000;stroke-width:0.705556;stroke-linecap:round;stroke-linejoin:round"
       d="m 114.38772,285.08264 v 5.5266"
       id="path619" /><path
       style="fill:none;stroke:#000000;stroke-width:0.705556;stroke-linecap:round;stroke-linejoin:round"
       d="m 116.57265,295.23616 h 5.26955 v -4.56266"
       id="path621" /><path
       style="fill:none;stroke:#000000;stroke-width:0.705556;stroke-linecap:round;stroke-linejoin:round"
       d="m 116.50839,293.17975 v -2.7633"
       id="path623" /><path
       style="fill:none;stroke:#000000;stroke-width:0.705556;stroke-linecap:round;stroke-linejoin:round"
       d="m 147.86862,304.55426 v -6.42628"
       id="path625" /><path
       style="fill:none;stroke:#000000;stroke-width:0.705556;stroke-linecap:round;stroke-linejoin:round"
       d="m 148.31846,285.72527 v 6.16922 h 2.18493 v 6.61907 h -2.63477"
       id="path627" /><path
       style="fill:none;stroke:#000000;stroke-width:0.705556;stroke-linecap:round;stroke-linejoin:round"
       d="m 147.80436,304.61852 h 19.98571 l -0.24959,0.9315"
       id="path629" /><path
       style="fill:none;stroke:#000000;stroke-width:0.705556;stroke-linecap:round;stroke-linejoin:round"
       d="M 167.46876,304.42573 V 285.72527"
       id="path631" /><path
       style="fill:none;stroke:#000000;stroke-width:0.705556;stroke-linecap:round;stroke-linejoin:round"
       d="m 176.59407,305.26115 v -10.21778 h 20.43556"
       id="path633" /><path
       style="fill:none;stroke:#000000;stroke-width:0.705556;stroke-linecap:round;stroke-linejoin:round"
       d="m 185.20529,278.84915 h 11.95287"
       id="path635" /><path
       style="fill:none;stroke:#000000;stroke-width:0.705556;stroke-linecap:round;stroke-linejoin:round"
       d="M 169.71796,278.65636 V 268.43858"
       id="path637" /><path
       style="fill:none;stroke:#000000;stroke-width:0.705556;stroke-linecap:round;stroke-linejoin:round"
       d="M 183.7915,268.56711 H 129.16816 V 221.26972"
       id="path639" /><path
       style="fill:none;stroke:#000000;stroke-width:0.705556;stroke-linecap:round;stroke-linejoin:round"
       d="m 129.23242,224.09728 h 3.40592 v 2.18493 h 2.63478 v 19.72867 h -2.89183 v 4.43413 h -0.89968 v 9.57515 h 1.15673 v 4.43413 h 20.49983 v 1.15673 h 2.31346 l -0.18534,0.69167 h 1.40633 v 1.81458"
       id="path641" /><path
       style="fill:none;stroke:#000000;stroke-width:0.705556;stroke-linecap:round;stroke-linejoin:round"
       d="m 159.62871,268.43858 v -3.53445 l 0.57175,-0.1532 0.28891,-1.07824 h 0.7459 v -38.61147 h -6.29775 v 16.25848 l -1.70296,1.70296 v 2.73117 h 2.6669 v 1.60657 h -0.89967 v 11.24598 h 1.0282 v 1.47805 h -1.0282 v 3.7915 h 0.83541 v 0.64263 h 0.89968 v 1.79935"
       id="path643" /><path
       style="fill:none;stroke:#000000;stroke-width:0.705556;stroke-linecap:round;stroke-linejoin:round"
       d="M 147.86383,278.73286 V 268.64504"
       id="path645" /><path
       style="fill:none;stroke:#000000;stroke-width:0.705556;stroke-linecap:round;stroke-linejoin:round"
       d="m 138.7757,268.55416 v 9.81518"
       id="path647" /><path
       style="fill:none;stroke:#000000;stroke-width:0.705556;stroke-linecap:round;stroke-linejoin:round"
       d="m 119.50887,278.73286 v -10.26958 h 9.7243"
       id="path649" /><path
       style="fill:none;stroke:#000000;stroke-width:0.705556;stroke-linecap:round;stroke-linejoin:round"
       d="m 129.14229,258.82986 h -19.72124 v 19.63036"
       id="path651" /><path
       style="fill:none;stroke:#000000;stroke-width:0.705556;stroke-linecap:round;stroke-linejoin:round"
       d="m 99.787637,277.5514 v -13.35954 l 1.499543,-1.49954 h 7.86123"
       id="path653" /><path
       style="fill:none;stroke:#000000;stroke-width:0.705556;stroke-linecap:round;stroke-linejoin:round"
       d="m 111.96573,258.55722 v -6.63433 l 3.27172,-3.27173 h 13.90484"
       id="path655" /><path
       style="fill:none;stroke:#000000;stroke-width:0.705556;stroke-linecap:round;stroke-linejoin:round"
       d="m 118.4183,248.4694 v -4.72583 l -3.08997,-3.08996 v -12.26897 l 4.40774,-4.40774 h 9.58798"
       id="path657" /><path
       style="fill:none;stroke:#000000;stroke-width:0.705556;stroke-linecap:round;stroke-linejoin:round"
       d="m 120.50857,220.11444 -7.81579,6.63434 v 13.17778 h -1.18146 v 3.99877 H 97.333841 l -0.449948,1.67924 H 78.248776 l -5.610886,-5.61088 h -2.659311 l -3.329043,3.32904 -1.124138,-1.12414 h -7.088741 l -1.454099,1.4541 -3.726133,-3.72613 H 33.62607 l -0.313626,1.17047"
       id="path659" /><path
       style="fill:none;stroke:#000000;stroke-width:0.705556;stroke-linecap:round;stroke-linejoin:round"
       d="m 13.268666,228.92993 h 8.542839 v 1.54498"
       id="path661" /><path
       style="fill:none;stroke:#000000;stroke-width:0.705556;stroke-linecap:round;stroke-linejoin:round"
       d="M 17.085679,228.83904 V 214.75245 L 9.3607709,213.38923"
       id="path663" /><path
       style="fill:none;stroke:#000000;stroke-width:0.705556;stroke-linecap:round;stroke-linejoin:round"
       d="m 9.1790085,203.02876 7.8157895,-1.72674 v -13.81396"
       id="path665" /><path
       style="fill:none;stroke:#000000;stroke-width:0.705556;stroke-linecap:round;stroke-linejoin:round"
       d="m 28.900244,230.38403 v -2.18115 h 13.086903 v -3.18085 l -15.904222,-1.72674 c 0,0 -2.726438,-4.99847 -2.726438,-7.54315 0,-2.54468 -1.4541,-16.81304 -0.181763,-18.35802 1.272338,-1.54498 1.272338,-4.18054 4.180539,-4.54406 2.908202,-0.36352 14.631884,-1.54498 14.631884,-1.54498 v -3.81702"
       id="path667" /><path
       style="fill:none;stroke:#000000;stroke-width:0.705556;stroke-linecap:round;stroke-linejoin:round"
       d="m 41.987147,228.38464 h 16.722156 v -11.1784 l -1.454103,-1.4541 -1.999387,1.99939 -13.086903,4.81671 v 2.54467"
       id="path669" /><path
       style="fill:none;stroke:#000000;stroke-width:0.705556;stroke-linecap:round;stroke-linejoin:round"
       d="M 58.618421,228.65728 H 92.88066 v -9.17901"
       id="path671" /><path
       style="fill:none;stroke:#000000;stroke-width:0.705556;stroke-linecap:round;stroke-linejoin:round"
       d="m 78.067013,217.38801 v 11.08751"
       id="path673" /><path
       style="fill:none;stroke:#000000;stroke-width:0.705556;stroke-linecap:round;stroke-linejoin:round"
       d="m 78.248776,187.03366 v 12.45073 h 4.362301 v -9.99694 h 3.998776 v -2.27203"
       id="path675" /><path
       style="fill:none;stroke:#000000;stroke-width:0.705556;stroke-linecap:round;stroke-linejoin:round"
       d="m 41.987147,239.83568 v -6.90698 h 9.815179"
       id="path677" /><path
       style="fill:none;stroke:#000000;stroke-width:0.705556;stroke-linecap:round;stroke-linejoin:round"
       d="m 52.074968,240.01744 v -9.90606 h 39.351593 v 6.36169 h -1.544982 l -1.726745,1.72675 -4.816707,-4.81671 v -1.4541 H 72.614136 v 7.81579"
       id="path679" /><path
       style="fill:none;stroke:#000000;stroke-width:0.705556;stroke-linecap:round;stroke-linejoin:round"
       d="m 88.700122,237.74541 2.090269,2.09027 h 20.902689"
       id="path681" /><path
       style="fill:none;stroke:#000000;stroke-width:0.705556;stroke-linecap:round;stroke-linejoin:round"
       d="M 181.30814,226.29437 H 161.5869"
       id="path683" /><path
       style="fill:none;stroke:#000000;stroke-width:0.705556;stroke-linecap:round;stroke-linejoin:round"
       d="m 161.13249,225.29468 h 4.72583 v -4.27142 h -4.27142 v -21.81151"
       id="path685" /><path
       style="fill:none;stroke:#000000;stroke-width:0.705556;stroke-linecap:round;stroke-linejoin:round"
       d="m 166.13097,198.4847 v 6.36169 h 7.08873 v -1.72674 h 4.08966 v 4.90758 h -3.72613 l -0.77249,0.77249 v 3.04453 h -11.13296"
       id="path687" /><path
       style="fill:none;stroke:#000000;stroke-width:0.705556;stroke-linecap:round;stroke-linejoin:round"
       d="m 165.31303,211.75336 v -4.18053 h 8.81549"
       id="path689" /><path
       style="fill:none;stroke:#000000;stroke-width:0.705556;stroke-linecap:round;stroke-linejoin:round"
       d="m 177.49112,208.02723 h 6.63434"
       id="path691" /><path
       style="fill:none;stroke:#000000;stroke-width:0.705556;stroke-linecap:round;stroke-linejoin:round"
       d="m 184.12546,203.30141 h -6.99786 v -6.36169"
       id="path693" /><path
       style="fill:none;stroke:#000000;stroke-width:0.705556;stroke-linecap:round;stroke-linejoin:round"
       d="m 173.2197,197.21236 v 5.99816"
       id="path695" /><path
       style="fill:none;stroke:#000000;stroke-width:0.705556;stroke-linecap:round;stroke-linejoin:round"
       d="m 172.12913,212.02601 v 9.99694 h -6.08905"
       id="path697" /><path
       style="fill:none;stroke:#000000;stroke-width:0.705556;stroke-linecap:round;stroke-linejoin:round"
       d="m 154.86169,199.39351 v 22.8112 h -1.72675 v 2.4538 h 3.45349"
       id="path699" /><path
       style="fill:none;stroke:#000000;stroke-width:0.705556;stroke-linecap:round;stroke-linejoin:round"
       d="m 135.41309,245.19767 h 8.08844 v 1.27234 h 3.81701 v -21.17533 h 7.2705"
       id="path701" /><path
       style="fill:none;stroke:#000000;stroke-width:0.705556;stroke-linecap:round;stroke-linejoin:round"
       d="m 147.40942,238.92687 h 7.72491"
       id="path703" /><path
       style="fill:none;stroke:#000000;stroke-width:0.705556;stroke-linecap:round;stroke-linejoin:round"
       d="m 50.802632,259.73868 h 11.814564 v -1.99939 h 1.635863 v -5.27112 h -1.817624 v -4.45318 H 50.893511 Z"
       id="path705" /><path
       style="fill:none;stroke:#000000;stroke-width:0.705556;stroke-linecap:round;stroke-linejoin:round"
       d="M 89.427171,259.64779 H 106.05844 V 248.37852 H 89.608934 v 3.72613 h -1.999387 v 4.72583 h 2.090269 z"
       id="path707" /><path
       style="fill:none;stroke:#000000;stroke-width:0.705556;stroke-linecap:round;stroke-linejoin:round"
       d="m 32.989901,260.73837 h 8.815485 l 3.544369,-3.54437 c 0,0 1.726745,-1.90851 1.272339,-3.45349 -0.454409,-1.54498 -0.454409,-4.18054 -1.454103,-4.3623 -0.999693,-0.18176 -3.63525,-2.72644 -3.63525,-2.72644 l -1.064591,0.61465 h -2.843302 -4.998472"
       id="path709" /><path
       style="fill:none;stroke:#000000;stroke-width:0.705556;stroke-linecap:round;stroke-linejoin:round"
       d="m 32.17197,267.55446 h 9.906058 v 10.90576"
       id="path711" /><path
       style="fill:none;stroke:#000000;stroke-width:0.705556;stroke-linecap:round;stroke-linejoin:round"
       d="m 42.078028,267.46359 h 11.360161 l 4.589502,-4.58951 h 7.679468 l 0.931534,0.93153 0.976974,-0.97697 h 7.906671 l 1.272336,1.27234 2.04483,-2.04483 h 17.403762 v 5.22567 l -1.4541,1.4541 h -7.906671 v 8.63372"
       id="path713" /><path
       style="fill:none;stroke:#000000;stroke-width:0.705556;stroke-linecap:round;stroke-linejoin:round"
       d="m 99.787637,268.8268 h 9.815173"
       id="path715" /><path
       style="fill:none;stroke:#000000;stroke-width:0.705556;stroke-linecap:round;stroke-linejoin:round"
       d="m 105.05875,268.46328 v -5.362"
       id="path717" /><path
       style="fill:none;stroke:#000000;stroke-width:0.705556;stroke-linecap:round;stroke-linejoin:round"
       d="m 99.878519,219.93268 v 5.72552 h 4.453181 v 2.09027 h 5.45288 v 2.18115"
       id="path719" /><path
       style="fill:none;stroke:#000000;stroke-width:0.705556;stroke-linecap:round;stroke-linejoin:round"
       d="m 109.6937,228.20288 v -8.54284"
       id="path721" /><path
       style="fill:none;stroke:#000000;stroke-width:0.705556;stroke-linecap:round;stroke-linejoin:round"
       d="m 109.51193,239.56303 v -5.72552 h -9.815174 v 5.72552"
       id="path723" /><path
       style="fill:none;stroke:#000000;stroke-width:0.705556;stroke-linecap:round;stroke-linejoin:round"
       d="m 88.005993,298.13586 v 6.63465 h 5.205283 v -6.61907 z"
       id="path725"
       sodipodi:nodetypes="ccccc" /><path
       style="fill:none;stroke:#000000;stroke-width:0.705556;stroke-linecap:round;stroke-linejoin:round"
       d="m 78.372578,298.13586 v 6.63465 h 5.205283 v -6.61907 z"
       id="path727"
       sodipodi:nodetypes="ccccc" /><path
       style="fill:none;stroke:#000000;stroke-width:0.705556;stroke-linecap:round;stroke-linejoin:round"
       d="m 99.378671,284.77647 v 1.04513 h 1.090579 v -1.04513 z"
       id="path729" /><path
       style="fill:none;stroke:#000000;stroke-width:0.705556;stroke-linecap:round;stroke-linejoin:round"
       d="m 80.202722,284.77647 v 1.04513 h 1.090579 v -1.04513 z"
       id="path731" /><path
       style="fill:none;stroke:#000000;stroke-width:0.705556;stroke-linecap:round;stroke-linejoin:round"
       d="m 89.836137,294.22812 v 1.04513 h 1.090575 v -1.04513 z"
       id="path733" /><path
       style="fill:none;stroke:#000000;stroke-width:0.705556;stroke-linecap:round;stroke-linejoin:round"
       d="m 99.378671,294.22812 v 1.04513 h 1.090579 v -1.04513 z"
       id="path735" /><path
       style="fill:none;stroke:#000000;stroke-width:0.705556;stroke-linecap:round;stroke-linejoin:round"
       d="m 80.202722,294.22812 v 1.04513 h 1.090579 v -1.04513 z"
       id="path737" /><path
       style="fill:none;stroke:#000000;stroke-width:0.705556;stroke-linecap:round;stroke-linejoin:round"
       d="m 151.36276,288.5026 v 1.04513 h 1.09058 v -1.04513 z"
       id="path739" /><path
       style="fill:none;stroke:#000000;stroke-width:0.705556;stroke-linecap:round;stroke-linejoin:round"
       d="m 151.36276,300.68069 v 1.04513 h 1.09058 v -1.04513 z"
       id="path741" /><path
       style="fill:none;stroke:#000000;stroke-width:0.705556;stroke-linecap:round;stroke-linejoin:round"
       d="m 163.35909,288.5026 v 1.04513 h 1.09058 v -1.04513 z"
       id="path743" /><path
       style="fill:none;stroke:#000000;stroke-width:0.705556;stroke-linecap:round;stroke-linejoin:round"
       d="m 163.35909,300.68069 v 1.04513 h 1.09058 v -1.04513 z"
       id="path745" /><path
       style="fill:none;stroke:#000000;stroke-width:0.705556;stroke-linecap:round;stroke-linejoin:round"
       d="m 70.478426,297.68161 v 1.04513 h 1.090579 v -1.04513 z"
       id="path747" /><path
       style="fill:none;stroke:#000000;stroke-width:0.705556;stroke-linecap:round;stroke-linejoin:round"
       d="m 66.47965,300.58981 v 1.04513 h 1.090579 v -1.04513 z"
       id="path749" /></g></svg>
